<svg width="1252.6" height="1248.1" xml:space="preserve" xmlns="http://www.w3.org/2000/svg"><path d="M-212.876 160.354c-10.202 0-13.805 6.805-13.805 15.407 0 8.499 3.603 15.408 13.805 15.408 10.305 0 13.902-6.91 13.902-15.408 0-8.602-3.597-15.407-13.902-15.407m0 26.415c-7.11 0-9.005-5.105-9.005-11.008 0-6.102 1.896-11.102 9.005-11.102 7.301 0 9.201 5 9.201 11.102 0 5.903-1.9 11.008-9.201 11.008m-34.912-61.823c-10.204 0-13.81 6.798-13.81 15.408 0 8.499 3.606 15.4 13.81 15.4 10.303 0 13.906-6.901 13.906-15.4 0-8.61-3.603-15.408-13.906-15.408m0 26.51c-7.204 0-9.102-5.103-9.102-11.102 0-6.006 1.898-11.006 9.102-11.006 7.3 0 9.102 5 9.102 11.006 0 5.999-1.801 11.102-9.102 11.102m32.812-25.91c-1.103 0-1.807.6-2.1 1.198l-30.816 60.624c-.195.398-.195.598-.195.9 0 1.294.998 2.397 2.4 2.397.798 0 1.701-.504 2.001-1.197l30.81-60.624c.1-.199.2-.694.2-.999 0-1.301-.999-2.299-2.3-2.299m-79.026-.6c-15.91 0-23.41 10.399-23.41 33.106 0 22.71 7.5 33.213 23.41 33.213 15.802 0 23.307-10.504 23.307-33.213 0-22.707-7.505-33.106-23.307-33.106m0 60.615c-11.705 0-17.109-8.004-17.109-27.509 0-19.609 5.404-27.402 17.109-27.402 11.701 0 17.104 7.793 17.104 27.402 0 19.505-5.403 27.509-17.104 27.509m-63.622 2.1c0 1.703 1.297 3.004 3 3.004 1.7 0 3-1.301 3-3.004 0-30.91 27.01-37.011 27.01-58.417 0-1.598-1.4-3.004-3.003-3.004h-35.211c-1.602 0-2.9 1.406-2.9 3.004a2.897 2.897 0 0 0 2.9 2.898h31.814c0 14.515-26.61 24.21-26.61 55.519" fill="#f16858" fill-rule="evenodd"/><text transform="translate(346.19 276.28) scale(1.3333)" x="-129.744" y="24.825" fill="#ef5160" font-family="sans-serif" font-size="30.001" letter-spacing="0" stroke="#ef5160" stroke-width=".75" word-spacing="0" style="line-height:1.25" xml:space="preserve"><tspan x="-129.744" y="24.825" font-size="48.001" style="line-height:1.25">75%</tspan></text><path fill="#8db18b" stroke="#6f7747" stroke-opacity=".949" stroke-width="1.085" d="M1753.32 1137.77h378.91v158.91h-378.91z"/><path fill="#e6e6e6" d="M1753.42 1137.21h99.443v159.44h-99.443z"/><text x="1396.406" y="370.514" fill="#6c7240" fill-opacity=".98" font-family="sans-serif" font-size="40" letter-spacing="0" word-spacing="0" style="line-height:1.25" xml:space="preserve" transform="translate(360.82 913.12)"><tspan x="1396.406" y="370.514" font-size="53.333">50</tspan></text><text x="1695.872" y="273.514" fill="#6b6f3d" fill-opacity=".934" font-family="sans-serif" font-size="40" letter-spacing="0" word-spacing="0" style="line-height:1.25" xml:space="preserve" transform="translate(360.82 913.12)"><tspan x="1695.872" y="273.514" font-size="53.333">50</tspan></text><path fill="#ad7fa8" stroke="#813e7e" stroke-width="1.085" d="m2191.684 748.886 378.906 1.746-.732 158.908-378.906-1.746z"/><path fill="#e6e6e6" d="m2191.787 748.286 99.442.459-.735 159.438-99.442-.458z"/><text x="1118.202" y="-1004.783" fill="#753879" fill-opacity=".82" font-family="sans-serif" font-size="40" letter-spacing="0" word-spacing="0" style="line-height:1.25" xml:space="preserve" transform="rotate(.264 -411005.864 234837.252)"><tspan x="1118.202" y="-1004.783" font-size="53.333">20</tspan></text><text x="1412.198" y="-1101.686" fill="#813e7e" font-family="sans-serif" font-size="40" letter-spacing="0" word-spacing="0" style="line-height:1.25" xml:space="preserve" transform="rotate(.264 -411005.864 234837.252)"><tspan x="1412.198" y="-1101.686" font-size="53.333">20</tspan></text><path fill="#f2c6be" stroke="#ef5160" stroke-width="1.085" d="m1761.216 691.998 378.91-.483.202 158.91-378.91.483z"/><path fill="#e6e6e6" opacity=".813" d="m1761.216 691.998 99.443-.127.203 159.44-99.443.127z"/><text x="1513.275" y="583.376" fill="#a33e5d" font-family="sans-serif" font-size="40" letter-spacing="0" word-spacing="0" style="line-height:1.25" xml:space="preserve" transform="rotate(-.073 202956 -198683)"><tspan x="1513.275" y="583.376" font-size="53.333">10</tspan></text><text x="1813.84" y="483.124" fill="#a33e5d" font-family="sans-serif" font-size="40" letter-spacing="0" word-spacing="0" style="line-height:1.25" xml:space="preserve" transform="rotate(-.073 202956 -198683)"><tspan x="1813.84" y="483.124" font-size="53.333">10</tspan></text><path d="M-.03 139.48h455.362l97.334 97.332v590.999H-.027z" fill="#e6e6e6" fill-rule="evenodd"/><path d="M552.73 236.15h-97.332v-97.332z" fill="#b3b3b3" fill-rule="evenodd"/><g fill="#ccc" fill-rule="evenodd"><path d="M62.596 490.543h431.056v-17.405H62.596zM62.596 570.54h431.056v-17.403H62.596zM62.596 650.405h431.056v-17.307H62.596zM62.596 730.537h431.056v-17.405H62.596z"/></g><path d="M160.63 427.08c-50.823-3.403-91.534-43.818-95.236-94.634h95.236z" fill="#ef5160" fill-rule="evenodd"/><path d="M258.86 332.41c-3.697 50.815-44.416 91.231-95.232 94.634V332.41z" fill="#fcb245" fill-rule="evenodd"/><path d="M160.63 329.35H65.394c3.702-50.719 44.413-91.231 95.236-94.634z" fill="#2a7bb1" fill-rule="evenodd"/><g fill-rule="evenodd"><path d="M202.139 634.406H304.47v-112.94H202.139z" fill="#2a7bb1"/><path d="M304.47 634.406h102.237V405.132H304.47z" fill="#fcb245"/><path d="M406.707 634.406h102.237V313.6H406.707z" fill="#2a7bb1"/><path d="M508.998 634.406H611.23V224.963H508.998z" fill="#fcb245"/><path d="M611.129 634.406h102.237v-523.48H611.129z" fill="#2a7bb1"/><path d="M713.393 634.406h102.232V.088H713.393z" fill="#fcb245"/></g><path d="M888.72 420.94h74.429V255.384h47.413l-42.316-73.218-42.314-73.332-42.321 73.332-42.307 73.218h47.416z" fill-rule="evenodd" fill="#6bc06f"/><path d="M764.19 1117.5h63.02v77.922h-63.02zm-309.61 0h63.024v77.922H454.58zM297.47 806.27h-68.417c-15.309 0-27.913 12.5-27.913 27.803v101.838c0 15.303 12.604 27.907 27.913 27.907h68.417c15.308 0 27.915-12.604 27.915-27.907V834.073c0-15.303-12.607-27.803-27.915-27.803M407.52 699.2c14.704-6.399 21.505-23.602 15.104-38.315l-28.416-65.416c-6.397-14.703-23.602-21.51-38.21-15.103-14.704 6.406-21.506 23.602-15.104 38.21l28.411 65.52c6.397 14.704 23.606 21.407 38.215 15.104" fill="#ec9492" fill-rule="evenodd"/><path d="M627.79 581.87c107.237 0 203.568 37.116 270.487 96.438l68.826 10.103c10.602 1.503 17.898 11.407 16.405 21.901-1.6 10.513-11.405 17.812-22.013 16.31l-21.102-3.098c33.915 44.816 53.515 97.533 53.515 153.943 0 163.262-163.956 295.606-366.125 295.606-202.181 0-366.03-132.35-366.03-295.606 0-163.25 163.862-295.593 366.03-295.593" fill="#ef5160" fill-rule="evenodd"/><path d="M339.79 598.67c-2.001 6.397-1.803 13.506 1.097 20.009l28.412 65.518c3.8 8.803 11.605 14.81 20.407 16.805 2-6.397 1.696-13.506-1.099-20l-28.41-65.527c-3.902-8.801-11.605-14.8-20.407-16.805M357.2 800.53c17.904 0 32.409-14.6 32.409-32.413 0-17.898-14.505-32.507-32.409-32.507-17.806 0-32.409 14.61-32.409 32.507 0 17.813 14.603 32.413 32.409 32.413M539.4 640.01c62.33-25.103 126.55-25.815 190.569 0 15.107 15.104 15.009 12.308 0 27.307-63.519-22.403-127.043-20.103-190.569 0-15.2-15.103-15.104-12.3 0-27.307" fill="#a33e5d" fill-rule="evenodd"/><path d="M80.502 1025.3H410.92c9.705 0 17.71 8.004 17.71 17.708v187.368c0 9.696-8.005 17.7-17.71 17.7H80.502c-9.71 0-17.713-8.004-17.713-17.7v-187.368c0-9.704 8.004-17.708 17.713-17.708" fill="#c7805c" fill-rule="evenodd"/><path d="M78.995 1043.7h333.418c8.903 0 16.208 7.308 16.208 16.205v171.956c0 8.906-7.305 16.206-16.208 16.206H78.995c-8.901 0-16.21-7.3-16.21-16.206v-171.956c0-8.897 7.309-16.205 16.21-16.205" fill="#e99261" fill-rule="evenodd"/><path d="M932.99 1219.2c16.008 0 117.441-.104 117.441-16.91v-23.505c0-2.31-.799-4.41-2.105-6.112-1.796-2.292-15.602-.294-18.705-.398l-187.769-1.798c-3.297-.096-22.807.104-24.603 2.699-1.103 1.606-1.801 3.498-1.801 5.609v23.505c0 19.905 100.634 16.91 117.54 16.91" fill="#ffb438" fill-rule="evenodd"/><path d="M933.12 1184.9c63.726 0 115.748-5.096 115.748-11.302 0-6.198-52.022-11.301-115.748-11.301-63.718 0-115.736 5.103-115.736 11.3 0 6.207 52.018 11.303 115.736 11.303" fill="#fcd471" fill-rule="evenodd"/><path d="M933.12 1165c-52.413 0-96.726 3.403-110.935 8.108 23.107-3.203 64.123-5.304 110.935-5.304 46.821 0 87.936 2.101 110.944 5.304-14.21-4.705-58.419-8.108-110.944-8.108" fill="#ffb438" fill-rule="evenodd"/><path d="M932.99 1177.8c16.008 0 117.441-.104 117.441-16.9v-23.515c0-2.3-.799-4.497-2.105-6.095-1.796-2.307-15.602-.406-18.705-.406l-187.769-1.901c-3.297 0-22.807.198-24.603 2.707-1.103 1.598-1.801 3.594-1.801 5.695v23.514c0 19.905 100.634 16.901 117.54 16.901" fill="#ffb438" fill-rule="evenodd"/><path d="M933.12 1143.5c63.726 0 115.748-5.095 115.748-11.302 0-6.292-52.022-11.301-115.748-11.301-63.718 0-115.736 5.009-115.736 11.3 0 6.208 52.018 11.303 115.736 11.303" fill="#fcd471" fill-rule="evenodd"/><path d="M933.12 1123.6c-52.413 0-96.726 3.404-110.935 8.108 23.107-3.203 64.123-5.303 110.935-5.303 46.821 0 87.936 2.1 110.944 5.303-14.21-4.704-58.419-8.108-110.944-8.108" fill="#ffb438" fill-rule="evenodd"/><path d="M932.99 1136.4c16.008 0 117.441-.096 117.441-16.9v-23.508c0-2.308-.799-4.506-2.105-6.102-1.796-2.309-15.602-.407-18.705-.407l-187.769-1.902c-3.297 0-22.807.2-24.603 2.7-1.103 1.605-1.801 3.601-1.801 5.71v23.508c0 19.904 100.634 16.901 117.54 16.901" fill="#ffb438" fill-rule="evenodd"/><path d="M933.12 1102.1c63.726 0 115.748-5.095 115.748-11.302 0-6.302-52.022-11.405-115.748-11.405-63.718 0-115.736 5.103-115.736 11.405 0 6.207 52.018 11.302 115.736 11.302" fill="#fcd471" fill-rule="evenodd"/><path d="M933.12 1082.2c-52.413 0-96.726 3.403-110.935 8.098 23.107-3.194 64.123-5.294 110.935-5.294 46.821 0 87.936 2.1 110.944 5.294-14.21-4.695-58.419-8.098-110.944-8.098" fill="#ffb438" fill-rule="evenodd"/><path d="M932.99 1095c16.008 0 117.441-.104 117.441-16.9v-23.611c0-2.3-.799-4.401-2.105-6.103-1.796-2.203-15.602-.295-18.705-.295l-187.769-1.908c-3.297 0-22.807.198-24.603 2.707-1.103 1.596-1.801 3.594-1.801 5.599v23.61c0 19.905 100.634 16.901 117.54 16.901" fill="#ffb438" fill-rule="evenodd"/><path d="M933.12 1060.7c63.726 0 115.748-5.096 115.748-11.302 0-6.302-52.022-11.397-115.748-11.397-63.718 0-115.736 5.095-115.736 11.397 0 6.206 52.018 11.302 115.736 11.302" fill="#fcd471" fill-rule="evenodd"/><path d="M933.12 1040.8c-52.413 0-96.726 3.403-110.935 8.108 23.107-3.203 64.123-5.4 110.935-5.4 46.821 0 87.936 2.197 110.944 5.4-14.21-4.705-58.419-8.108-110.944-8.108" fill="#ffb438" fill-rule="evenodd"/><path d="M958.85 1050c16.006 0 117.444-.096 117.444-16.9v-23.515c0-2.292-.803-4.401-2.104-6.095-1.803-2.309-15.602-.303-18.702-.4l-187.77-1.805c-3.306-.104-22.806.096-24.608 2.7-1.102 1.597-1.8 3.507-1.8 5.6v23.514c0 19.904 100.634 16.901 117.536 16.901" fill="#ffb438" fill-rule="evenodd"/><path d="M958.85 1015.7c63.728 0 115.74-5.095 115.74-11.302 0-6.206-52.012-11.301-115.74-11.301-63.722 0-115.74 5.095-115.74 11.3 0 6.208 52.018 11.303 115.74 11.303" fill="#fcd471" fill-rule="evenodd"/><path d="M958.85 995.77c-52.416 0-96.73 3.507-110.939 8.106 23.107-3.202 64.13-5.302 110.939-5.302 46.817 0 87.832 2.1 110.939 5.302-14.205-4.6-58.523-8.106-110.939-8.106" fill="#ffb438" fill-rule="evenodd"/><path d="M929.65 1005c16.102 0 117.54-.095 117.54-16.9v-23.515c0-2.292-.802-4.401-2.1-6.095-1.802-2.307-15.71-.302-18.81-.398l-187.77-1.805c-3.298-.104-22.81.104-24.608 2.698-1.097 1.607-1.701 3.508-1.701 5.6v23.514c0 19.905 100.536 16.901 117.445 16.901" fill="#ffb438" fill-rule="evenodd"/><path d="M929.92 970.66c63.722 0 115.738-5.104 115.738-11.31 0-6.199-52.016-11.303-115.738-11.303-63.724 0-115.74 5.104-115.74 11.303 0 6.206 52.016 11.31 115.74 11.31" fill="#fcd471" fill-rule="evenodd"/><path d="M929.92 950.74c-52.521 0-96.735 3.404-110.94 8.108 23.008-3.203 64.123-5.303 110.94-5.303 46.812 0 87.827 2.1 110.933 5.303-14.209-4.704-58.517-8.108-110.933-8.108" fill="#ffb438" fill-rule="evenodd"/><path d="M881.52 955.74c15.798-2.595 115.838-19.704 113.035-36.308l-3.906-23.204c-.394-2.205-1.593-4.201-3.096-5.608-2.2-1.996-15.506 2.302-18.606 2.7L783.578 922.93c-3.303.504-22.508 4.01-23.81 6.805-.898 1.807-1.202 3.803-.798 5.808l3.902 23.202c3.303 19.703 102.032-.095 118.643-3.004" fill="#ffb438" fill-rule="evenodd"/><path d="M872.32 899.63c-63.028 10.702-113.34 24.314-112.241 30.513 1.002 6.205 53.016 2.5 115.938-8.204 63.02-10.703 113.34-24.409 112.237-30.503-.997-6.207-53.01-2.508-115.934 8.194" fill="#fcd471" fill-rule="evenodd"/><path d="M872.72 902.33c-51.717 8.802-94.834 19.609-108.04 26.51 22.209-6.997 62.325-15.998 108.535-23.802 46.119-7.812 86.932-12.604 110.24-13.306-14.805-2.207-59.018 1.796-110.735 10.598M1139.6 1223.2c62.121 0 112.841-50.719 112.841-112.845 0-62.212-50.72-112.836-112.841-112.836s-112.836 50.624-112.836 112.836c0 62.126 50.715 112.845 112.836 112.845" fill="#ffb438" fill-rule="evenodd"/><path d="M1139.6 1203.2c51.223 0 92.931-41.71 92.931-92.932 0-51.214-41.708-92.923-92.931-92.923-51.219 0-92.931 41.71-92.931 92.923 0 51.222 41.712 92.932 92.931 92.932" fill="#fcd471" fill-rule="evenodd"/><path d="M1139.6 1197.9c48.319 0 87.628-39.416 87.628-87.636 0-48.315-39.31-87.629-87.628-87.629-48.315 0-87.636 39.314-87.636 87.629 0 48.22 39.321 87.636 87.636 87.636M1139.5 411.08c13.501-5.807 99.432-42.916 93.335-57.117l-8.606-19.912c-.804-1.997-2.202-3.498-4.003-4.401-2.296-1.303-13.302 5.399-16.001 6.501l-159.756 66.83c-2.8 1.198-19.206 8.498-19.805 11.302-.4 1.7-.2 3.594.495 5.398l8.61 19.905c7.296 16.91 91.43-22.3 105.732-28.506" fill="#ffb438" fill-rule="evenodd"/><path d="M1118.8 362.81c-54.117 23.306-96.135 46.519-93.834 51.812 2.204 5.305 48.02-9.304 102.14-32.603 54.114-23.314 96.227-46.422 93.931-51.726-2.3-5.303-48.02 9.306-102.237 32.517" fill="#fcd471" fill-rule="evenodd"/><path d="M1119.9 365.08c-44.422 19.105-80.633 38.115-91.04 47.316 18.41-11.197 52.42-27.906 92.133-45.015 39.617-17.005 75.128-30.208 95.934-35.91-13.805 1.204-52.519 14.504-97.027 33.609M1011.3 572.67c14.114 4.505 103.439 32.517 108.039 17.708l6.502-20.608c.7-2.1.603-4.2-.1-6.006-.999-2.491-13.705-4.6-16.402-5.504l-164.663-53.714c-2.898-.998-20.103-6.197-22.403-4.4-1.401.998-2.5 2.604-3.099 4.4l-6.506 20.712c-5.5 17.507 83.83 42.708 98.63 47.412" fill="#ffb438" fill-rule="evenodd"/><path d="M1027.3 522.68c-56.223-17.708-103.14-27.613-104.837-22.109-1.8 5.503 42.417 24.313 98.636 42.022 56.217 17.698 103.133 27.603 104.932 22.1 1.7-5.503-42.514-24.305-98.731-42.013" fill="#fcd471" fill-rule="evenodd"/><path d="M1026.6 525.08c-46.127-14.497-86.034-23.802-99.84-23.602 21.205 3.603 57.916 13.098 99.035 26.006 41.213 13.013 76.723 26.31 96.128 35.511-11.201-8.098-49.212-23.306-95.323-37.915M1118.713 782.049c14.024-4.501 103.206-32.774 98.547-47.541l-6.555-20.744c-.637-1.954-1.94-3.64-3.555-4.77-2.17-1.44-13.85 4.13-16.552 4.928l-165.587 50.574c-2.914.865-20.02 6.49-20.849 9.183-.638 1.706-.611 3.658-.05 5.5l6.57 20.64c5.556 17.497 93.164-13.126 108.038-17.77" fill="#ffb438" fill-rule="evenodd"/><path d="M1102.831 731.821c-56.165 17.793-100.317 36.707-98.523 42.151 1.673 5.526 48.675-4.475 104.815-22.166 56.257-17.775 100.403-36.68 98.634-42.234-1.693-5.424-48.673 4.475-104.926 22.25" fill="#fcd471" fill-rule="evenodd"/><path d="M1103.674 734.288c-46.166 14.639-84.113 29.97-95.358 37.974 19.42-9.162 54.943-22.524 96.094-35.487 41.179-13.073 77.875-22.527 99.066-26.142-13.814-.246-53.75 9.091-99.802 23.655" fill="#ffb438" fill-rule="evenodd"/><path d="M1120.5 1080.4h33.042v7.083h-25.333v15.25q1.833-.625 3.667-.916 1.833-.334 3.666-.334 10.417 0 16.5 5.709 6.084 5.708 6.084 15.458 0 10.042-6.25 15.625-6.25 5.541-17.625 5.541-3.917 0-8-.666-4.042-.667-8.375-2v-8.459q3.75 2.042 7.75 3.042t8.458 1q7.208 0 11.417-3.792 4.208-3.791 4.208-10.292t-4.208-10.292q-4.208-3.791-11.417-3.791-3.375 0-6.75.75-3.333.75-6.833 2.333z" fill="#fcd471" aria-label="5"/><path d="m609.44 379.104 128.376 356.5-149.511 53.84-128.376-356.501z" fill="#ad7fa8" stroke="#813e7e" stroke-width="1.085"/><path d="m610.039 378.995 33.691 93.561-150.01 54.019-33.692-93.562z" fill="#e6e6e6"/><g fill="#753879" fill-opacity=".82" aria-label="20"><path d="m481.29 446.19 6.22 17.272-4.165 1.5-8.365-23.228 4.166-1.5q3.93 1.768 10.577 4.855 6.68 3.102 8.552 3.84 3.526 1.415 5.7 1.684 2.205.285 3.994-.359 2.916-1.05 4.012-3.77 1.105-2.695-.077-5.978-.838-2.328-2.582-4.634-1.735-2.281-4.435-4.63l4.998-1.8q2.277 2.557 3.825 4.933t2.324 4.533q2.047 5.684.422 10.09-1.624 4.404-6.377 6.115-2.255.812-4.597.687-2.31-.11-5.856-1.351-.931-.357-5.52-2.414-4.563-2.065-12.816-5.847zM524.246 473.98q-1.377-3.823-5.847-4.4-4.437-.561-11.983 2.156-7.522 2.709-10.607 5.979-3.052 3.285-1.675 7.107 1.385 3.847 5.822 4.408 4.47.577 11.992-2.131 7.546-2.718 10.598-6.003 3.085-3.27 1.7-7.117zm3.92-1.412q2.214 6.15-1.497 11.14-3.678 5.005-12.939 8.34-9.237 3.326-15.286 1.823-6.016-1.487-8.23-7.637-2.215-6.15 1.462-11.155 3.711-4.99 12.949-8.316 9.261-3.336 15.277-1.848 6.05 1.503 8.264 7.653z"/></g><g fill="#813e7e" aria-label="20"><path d="m672.067 689.971 6.22 17.273-4.165 1.5-8.364-23.228 4.165-1.5q3.93 1.768 10.577 4.855 6.681 3.102 8.552 3.84 3.527 1.415 5.7 1.684 2.206.285 3.994-.359 2.916-1.05 4.012-3.77 1.106-2.695-.077-5.978-.838-2.328-2.582-4.634-1.734-2.281-4.435-4.63l4.999-1.8q2.276 2.557 3.824 4.933 1.548 2.377 2.324 4.533 2.047 5.684.423 10.09-1.625 4.404-6.378 6.115-2.254.812-4.597.687-2.309-.11-5.856-1.351-.93-.357-5.519-2.414-4.563-2.065-12.817-5.847zM715.023 717.761q-1.376-3.822-5.847-4.399-4.437-.561-11.983 2.156-7.522 2.709-10.607 5.979-3.051 3.285-1.675 7.107 1.385 3.847 5.822 4.408 4.47.577 11.992-2.131 7.547-2.718 10.598-6.003 3.085-3.27 1.7-7.117zm3.92-1.412q2.215 6.15-1.496 11.14-3.678 5.006-12.94 8.341-9.237 3.326-15.286 1.823-6.016-1.487-8.23-7.637-2.215-6.15 1.463-11.155 3.71-4.99 12.948-8.317 9.261-3.335 15.277-1.847 6.05 1.503 8.264 7.652z"/></g><path d="M790.513 472.233 660.794 828.247l-149.307-54.403 129.719-356.013z" fill="#f2c6be" stroke="#ef5160" stroke-width="1.085"/><path d="m790.513 472.233-34.044 93.434-149.805-54.584 34.044-93.434z" fill="#e6e6e6" opacity=".813"/><g fill="#a33e5d" aria-label="10"><path d="m651.618 434.822-2.942 8.074 27.869 10.155 1.438-9.426 4.503 1.64-1.421 9.377-1.801 4.943-32.372-11.795-2.942 8.074-4.16-1.515 7.668-21.043zM665.57 487.054q1.39-3.817-1.674-7.123-3.048-3.272-10.584-6.018-7.512-2.737-11.975-2.201-4.448.569-5.839 4.386-1.4 3.841 1.649 7.114 3.064 3.306 10.575 6.042 7.536 2.746 11.984 2.177 4.464-.535 5.863-4.377zm3.914 1.427q-2.238 6.141-8.284 7.597-6.03 1.489-15.279-1.881-9.224-3.361-12.908-8.39-3.668-4.994-1.43-11.136 2.238-6.141 8.268-7.63 6.046-1.456 15.27 1.905 9.25 3.37 12.917 8.365 3.684 5.028 1.446 11.17z"/></g><g fill="#a33e5d" aria-label="10"><path d="m642.9 751.578-2.942 8.074 27.869 10.155 1.439-9.426 4.502 1.64-1.421 9.377-1.801 4.943-32.371-11.795-2.942 8.074-4.16-1.515 7.667-21.043zM656.852 803.81q1.39-3.817-1.673-7.123-3.049-3.272-10.585-6.018-7.511-2.737-11.975-2.201-4.447.569-5.838 4.386-1.4 3.841 1.648 7.114 3.064 3.306 10.576 6.043 7.536 2.745 11.983 2.176 4.464-.535 5.864-4.377zm3.915 1.427q-2.238 6.141-8.284 7.597-6.03 1.489-15.28-1.881-9.224-3.361-12.907-8.39-3.668-4.994-1.43-11.136t8.268-7.63q6.046-1.456 15.27 1.905 9.249 3.37 12.917 8.365 3.683 5.028 1.446 11.17z"/></g><path d="M636.46 835.6c96.23 0 174.756-41.614 174.756-92.636 0-51.015-78.53-92.629-174.756-92.629-96.135 0-174.662 41.614-174.662 92.629 0 51.022 78.522 92.636 174.662 92.636" fill="#ef5160" fill-rule="evenodd"/><path d="M845 843.86c12.904-7.101 95.027-51.917 87.628-65.52l-10.403-19.106c-.999-1.796-2.6-3.202-4.401-4.001-2.406-.999-12.804 6.702-15.304 8.004l-152.85 81.326c-2.694 1.406-18.407 10.2-18.706 13.002-.3 1.797.1 3.708 1.003 5.41l10.4 19c8.8 16.11 88.93-30.711 102.64-38.115" fill="#ffb438" fill-rule="evenodd"/><path d="M819.8 797.6c-51.723 28.211-91.439 55.225-88.636 60.225 2.7 5.104 46.918-13.706 98.636-41.813 51.816-28.212 91.528-55.216 88.73-60.328-2.7-5-46.918 13.706-98.73 41.916" fill="#fcd471" fill-rule="evenodd"/><path d="M821.1 799.86c-42.512 23.202-76.825 45.51-86.33 55.52 17.308-12.71 49.618-32.622 87.527-53.22 37.917-20.712 72.127-37.012 92.234-44.616-13.606 2.402-51.017 19.209-93.431 42.316" fill="#ffb438" fill-rule="evenodd"/><path d="m317.312 796.206 102.31 364.836-153.007 42.908-102.31-364.836z" fill="#ad7fa8" stroke="#813e7e" stroke-width="1.085"/><path d="m317.917 796.14 26.85 95.75-153.517 43.05-26.851-95.749z" fill="#e6e6e6"/><g fill="#753879" fill-opacity=".82" aria-label="20"><path d="m184.654 853.867 4.957 17.677-4.263 1.196-6.666-23.771 4.263-1.196q3.793 2.047 10.2 5.606 6.439 3.576 8.252 4.447 3.415 1.666 5.563 2.091 2.18.444 4.01-.07 2.984-.836 4.274-3.47 1.297-2.609.355-5.969-.668-2.382-2.241-4.807-1.566-2.401-4.09-4.939l5.115-1.434q2.087 2.714 3.46 5.196t1.99 4.689q1.631 5.817-.307 10.093t-6.803 5.64q-2.306.647-4.634.353-2.295-.276-5.743-1.77-.903-.423-5.33-2.806-4.403-2.39-12.362-6.757zM225.492 884.685q-1.097-3.912-5.514-4.81-4.385-.88-12.107 1.286-7.698 2.159-11.011 5.197-3.28 3.057-2.184 6.969 1.104 3.936 5.489 4.816 4.417.898 12.114-1.26 7.723-2.166 11.004-5.223 3.313-3.038 2.209-6.975zm4.012-1.125q1.765 6.294-2.297 11.003-4.03 4.727-13.507 7.385-9.454 2.65-15.379.715-5.892-1.917-7.657-8.211-1.765-6.294 2.264-11.02 4.062-4.71 13.515-7.36 9.478-2.659 15.371-.741 5.925 1.935 7.69 8.23z"/></g><g fill="#813e7e" aria-label="20"><path d="m357.338 1110.783 4.958 17.677-4.263 1.195-6.666-23.77 4.262-1.196q3.793 2.047 10.2 5.605 6.44 3.577 8.252 4.448 3.415 1.665 5.563 2.09 2.18.444 4.01-.069 2.984-.837 4.274-3.47 1.297-2.609.355-5.969-.668-2.382-2.24-4.808-1.566-2.4-4.09-4.938l5.115-1.435q2.086 2.715 3.459 5.197 1.372 2.482 1.99 4.689 1.632 5.817-.306 10.093-1.939 4.276-6.803 5.64-2.307.647-4.634.353-2.295-.276-5.744-1.77-.902-.423-5.33-2.806-4.403-2.39-12.362-6.757zM398.176 1141.6q-1.096-3.91-5.513-4.809-4.385-.88-12.108 1.286-7.698 2.159-11.01 5.197-3.282 3.057-2.185 6.969 1.104 3.936 5.49 4.816 4.416.898 12.114-1.26 7.723-2.166 11.003-5.223 3.313-3.038 2.21-6.975zm4.012-1.124q1.765 6.293-2.296 11.003-4.03 4.727-13.508 7.385-9.453 2.65-15.378.715-5.893-1.918-7.658-8.211-1.765-6.294 2.265-11.021 4.061-4.71 13.514-7.36 9.478-2.658 15.371-.74 5.925 1.935 7.69 8.229z"/></g><path d="m276.164 831.1 122.103 358.698-150.433 51.208L125.731 882.31z" fill="#f2c6be" stroke="#ef5160" stroke-width="1.085"/><path d="m276.164 831.1 32.045 94.139-150.935 51.38-32.045-94.139z" fill="#e6e6e6" opacity=".813"/><g fill="#a33e5d" aria-label="10"><path d="m144.494 889.02 2.77 8.136 28.078-9.558-4.787-8.246 4.536-1.544 4.77 8.196 1.696 4.98-32.615 11.103 2.77 8.135-4.192 1.427-7.217-21.202zM188.107 920.971q-1.31-3.846-5.769-4.5-4.426-.64-12.019 1.945-7.568 2.576-10.71 5.791-3.109 3.232-1.8 7.078 1.318 3.87 5.744 4.509 4.46.655 12.028-1.921 7.593-2.585 10.701-5.816 3.142-3.215 1.825-7.086zm3.944-1.343q2.107 6.188-1.691 11.112-3.765 4.94-13.084 8.113-9.294 3.164-15.316 1.555-5.989-1.593-8.095-7.78-2.107-6.188 1.658-11.129 3.798-4.924 13.092-8.088 9.32-3.172 15.308-1.58 6.022 1.61 8.128 7.797z"/></g><g fill="#a33e5d" aria-label="10"><path d="m336.265 1141.28 2.769 8.135 28.079-9.558-4.788-8.246 4.536-1.544 4.771 8.196 1.695 4.98-32.615 11.103 2.77 8.135-4.192 1.427-7.217-21.202zM379.877 1173.23q-1.309-3.846-5.768-4.5-4.427-.64-12.02 1.945-7.568 2.576-10.71 5.791-3.109 3.232-1.8 7.078 1.318 3.87 5.745 4.509 4.459.655 12.027-1.921 7.593-2.585 10.702-5.816 3.142-3.215 1.824-7.086zm3.945-1.343q2.106 6.188-1.692 11.112-3.765 4.94-13.084 8.113-9.294 3.164-15.316 1.555-5.989-1.593-8.095-7.78t1.659-11.129q3.798-4.924 13.092-8.088 9.318-3.172 15.307-1.58 6.022 1.61 8.129 7.797z"/></g><path d="m223.093 830.685 137.781 352.972-148.032 57.783L75.061 888.47z" fill="#8db18b" stroke="#6f7747" stroke-opacity=".949" stroke-width="1.085"/><path d="m223.65 830.574 36.16 92.636-148.525 57.976-36.16-92.635z" fill="#e6e6e6"/><g fill="#6c7240" fill-opacity=".98" aria-label="50"><path d="m126.963 878.621 7.51 19.238-4.125 1.61-5.757-14.75-8.879 3.466q.781.926 1.367 1.927.611.991 1.028 2.059 2.367 6.065.426 10.903-1.94 4.84-7.618 7.055-5.846 2.282-10.517-.088-4.647-2.38-7.232-9.002-.89-2.28-1.43-4.81-.53-2.504-.74-5.33l4.926-1.922q-.337 2.647-.01 5.203t1.34 5.152q1.638 4.197 4.802 5.785 3.164 1.589 6.949.111t5.035-4.789-.387-7.508q-.767-1.965-1.97-3.76-1.195-1.77-2.912-3.448zM140.13 921.896q-1.477-3.784-5.96-4.243-4.451-.443-11.923 2.473-7.447 2.908-10.444 6.258-2.964 3.365-1.487 7.15 1.487 3.808 5.937 4.252 4.484.458 11.932-2.45 7.471-2.916 10.435-6.28 2.997-3.351 1.51-7.16zm3.882-1.515q2.377 6.089-1.201 11.175-3.544 5.102-12.714 8.681-9.145 3.57-15.232 2.228-6.054-1.327-8.43-7.416-2.377-6.09 1.167-11.19 3.577-5.087 12.723-8.657 9.17-3.58 15.223-2.252 6.087 1.342 8.464 7.43z"/></g><g fill="#6b6f3d" fill-opacity=".934" aria-label="50"><path d="m326.193 1122.255 7.509 19.237-4.124 1.61-5.758-14.75-8.878 3.466q.78.926 1.367 1.927.61.991 1.027 2.059 2.367 6.065.426 10.903-1.94 4.84-7.617 7.055-5.847 2.282-10.518-.088-4.647-2.38-7.232-9.002-.89-2.28-1.43-4.81-.53-2.504-.739-5.33l4.925-1.922q-.337 2.647-.01 5.203t1.34 5.152q1.638 4.197 4.802 5.785t6.949.111 5.035-4.789-.387-7.508q-.767-1.965-1.97-3.76-1.195-1.77-2.912-3.448zM339.396 1165.622q-1.477-3.784-5.961-4.242-4.45-.444-11.922 2.473-7.448 2.907-10.445 6.257-2.963 3.365-1.486 7.15 1.487 3.809 5.937 4.252 4.484.458 11.931-2.449 7.472-2.916 10.435-6.282 2.998-3.35 1.51-7.159zm3.881-1.515q2.377 6.089-1.2 11.176-3.544 5.101-12.714 8.68-9.146 3.57-15.233 2.228-6.053-1.327-8.43-7.416t1.167-11.19q3.578-5.087 12.723-8.657 9.17-3.58 15.224-2.252 6.087 1.342 8.463 7.431z"/></g><path d="M77.102 1068.2H414.32c7.904 0 14.305 6.399 14.305 14.305v151.25c0 7.907-6.401 14.305-14.305 14.305H77.102c-7.898 0-14.309-6.398-14.309-14.305v-151.25c0-7.906 6.41-14.305 14.309-14.305" fill="#e58a6b" fill-rule="evenodd"/><path d="M115.91 1068.2h298.406c7.902 0 14.305 6.399 14.305 14.305v151.25c0 7.907-6.403 14.305-14.305 14.305H115.91c-7.904 0-14.305-6.398-14.305-14.305v-151.25c0-7.906 6.401-14.305 14.305-14.305" fill="#faa17e" fill-rule="evenodd"/><path d="M158.83 1068.2h255.487c7.904 0 14.306 6.399 14.306 14.305v151.25c0 7.907-6.402 14.305-14.306 14.305H158.83c-7.804 0-14.305-6.398-14.305-14.305v-151.25c0-7.906 6.501-14.305 14.305-14.305" fill="#f9b38c" fill-rule="evenodd"/><path d="M192.34 1134.8c13.606 0 24.709-11.102 24.709-24.713 0-13.698-11.103-24.808-24.709-24.808s-24.709 11.11-24.709 24.808c0 13.61 11.103 24.713 24.709 24.713" fill="#de9266" fill-rule="evenodd"/><path d="M192.34 1103.5c3.701 0 6.601 2.9 6.601 6.597 0 3.603-2.9 6.605-6.601 6.605-3.597 0-6.601-3.002-6.601-6.605 0-3.697 3.004-6.597 6.601-6.597" fill="#f9b38c" fill-rule="evenodd"/></svg>